<svg width="50" height="50" viewBox="0 0 50 50" fill="none" xmlns="http://www.w3.org/2000/svg">
<path d="M25.5328 47.9079C18.4641 47.9079 14.0953 30.7282 14.0062 26.0501C13.8891 19.8438 16.5328 15.5485 22.0891 12.9329C23.0125 12.4969 25.175 11.4782 27.4281 11.4782C29.4281 11.4782 31.0891 12.2485 32.3609 13.7735C35.0609 16.9985 34.4734 20.9235 30.7063 24.825C29.0375 26.5516 27.3172 28.3375 30.4328 33.4813C32.7219 37.2547 33.1766 41.4313 31.6219 44.3813C30.5031 46.5063 28.4281 47.7547 25.7797 47.9C25.7609 47.9016 25.5484 47.9063 25.5297 47.9063L25.5328 47.9079ZM27.4266 13.561C25.6437 13.561 23.775 14.4438 22.9766 14.8188C18.175 17.0797 15.9891 20.6375 16.0875 26.011C16.175 30.7235 20.6453 45.8282 25.5312 45.8282V46.8704L25.6625 45.825C27.5828 45.7188 29.0047 44.8813 29.7828 43.4125C30.9781 41.1376 30.5375 37.6625 28.6531 34.5579C25.0078 28.5438 26.9281 25.7391 29.2078 23.375C33.7516 18.6735 31.5063 15.9922 30.7656 15.111C29.8922 14.0688 28.8016 13.5625 27.4266 13.5625V13.561ZM10.75 20.8391C9.02656 20.8391 7.625 19.4375 7.625 17.7141C7.625 15.9907 9.02656 14.5891 10.75 14.5891C12.4734 14.5891 13.875 15.9907 13.875 17.7141C13.875 19.4375 12.475 20.8391 10.75 20.8391ZM10.75 16.6735C10.175 16.6735 9.70781 17.1469 9.70781 17.7157C9.70781 18.2891 10.175 18.7579 10.75 18.7579C11.3234 18.7579 11.7922 18.2891 11.7922 17.7157C11.7922 17.1454 11.325 16.6735 10.75 16.6735ZM14.5172 14.5891C12.7938 14.5891 11.3922 13.1875 11.3922 11.4641C11.3922 9.74067 12.7938 8.33911 14.5172 8.33911C16.2406 8.33911 17.6422 9.74067 17.6422 11.4641C17.6422 13.1875 16.2406 14.5891 14.5172 14.5891ZM14.5172 10.4235C13.9422 10.4235 13.475 10.8969 13.475 11.4657C13.475 12.0391 13.9422 12.5079 14.5172 12.5079C15.0922 12.5079 15.5594 12.0391 15.5594 11.4657C15.5594 10.8954 15.0922 10.4235 14.5172 10.4235ZM20.5266 10.4235C18.8031 10.4235 17.4016 9.02192 17.4016 7.29849C17.4016 5.57505 18.8031 4.17349 20.5266 4.17349C22.25 4.17349 23.6516 5.57505 23.6516 7.29849C23.6516 9.02192 22.25 10.4235 20.5266 10.4235ZM20.5266 6.2563C19.9531 6.2563 19.4844 6.72974 19.4844 7.29849C19.4844 7.87192 19.9531 8.34067 20.5266 8.34067C21.1016 8.34067 21.5687 7.87192 21.5687 7.29849C21.5687 6.72817 21.1016 6.2563 20.5266 6.2563ZM27.6484 8.33911C25.9281 8.33911 24.5234 6.93755 24.5234 5.21411C24.5234 3.49067 25.9281 2.08911 27.6484 2.08911C29.3719 2.08911 30.7734 3.49067 30.7734 5.21411C30.7734 6.93755 29.3719 8.33911 27.6484 8.33911ZM27.6484 4.17349C27.075 4.17349 26.6062 4.64692 26.6062 5.21567C26.6062 5.78911 27.075 6.25786 27.6484 6.25786C28.2234 6.25786 28.6906 5.78911 28.6906 5.21567C28.6906 4.64536 28.2234 4.17349 27.6484 4.17349ZM37.1672 12.5063C34.2969 12.5063 31.9594 10.1704 31.9594 7.29849C31.9594 4.42661 34.2969 2.09067 37.1672 2.09067C40.0375 2.09067 42.375 4.42661 42.375 7.29849C42.375 10.1704 40.0375 12.5063 37.1672 12.5063ZM37.1672 4.17349C35.4438 4.17349 34.0422 5.57505 34.0422 7.29849C34.0422 9.02192 35.4438 10.4235 37.1672 10.4235C38.8906 10.4235 40.2922 9.02192 40.2922 7.29849C40.2922 5.57505 38.8906 4.17349 37.1672 4.17349Z" fill="#CFCA4C"/>
</svg>
