<svg width="50" height="50" viewBox="0 0 50 50" fill="none" xmlns="http://www.w3.org/2000/svg">
<path d="M36.7186 49.1578H13.2811C12.7873 49.1578 12.3623 48.8125 12.2623 48.3282L8.3561 29.5782C8.29204 29.2735 8.3686 28.9516 8.56704 28.7078C8.76547 28.4688 9.06235 28.325 9.37485 28.325H40.6249C40.9374 28.325 41.2358 28.4625 41.4358 28.7078C41.6311 28.9516 41.7092 29.2719 41.6467 29.5782L37.7405 48.3282C37.6389 48.811 37.2092 49.1578 36.7186 49.1578ZM14.1295 47.075H35.8733L39.3467 30.4078H10.6577L14.1295 47.075ZM38.542 34.575H11.4592C10.8842 34.575 10.417 34.1063 10.417 33.5328C10.417 32.9563 10.8842 32.4907 11.4592 32.4907H38.542C39.1155 32.4907 39.5842 32.9547 39.5842 33.5328C39.5842 34.1063 39.1155 34.575 38.542 34.575ZM24.9999 29.3672C24.4249 29.3672 23.9577 28.8985 23.9577 28.325V5.40784C23.9577 4.83284 24.4249 4.36565 24.9999 4.36565C25.5749 4.36565 26.042 4.83284 26.042 5.40784V28.325C26.042 28.8985 25.5749 29.3672 24.9999 29.3672ZM23.8795 25.7188C20.7733 25.7188 18.142 24.6266 16.2686 22.5578C14.3389 20.4313 13.3686 17.3375 13.6686 14.2844C13.7233 13.7297 14.2108 13.2703 14.7577 13.3469C18.6202 13.5516 21.8467 14.9344 23.8405 17.2453C25.553 19.2313 26.3092 21.8157 26.0264 24.7266C25.978 25.225 25.5811 25.625 25.078 25.6625C24.667 25.7016 24.267 25.7188 23.878 25.7188H23.8795ZM15.6999 15.5188C15.7295 17.6453 16.4858 19.7 17.8123 21.1578C19.2811 22.7766 21.3764 23.6328 23.8795 23.6328C23.9217 23.6328 23.9624 23.6328 24.0045 23.6328C24.017 21.675 23.4249 19.9469 22.267 18.6063C20.8217 16.9313 18.5155 15.8547 15.6999 15.5188ZM26.2123 19.4688C25.8233 19.4688 25.4233 19.4516 25.0077 19.4172C24.5077 19.3735 24.1077 18.9797 24.0592 18.4844C23.778 15.5766 24.5342 12.986 26.2452 11.0016C28.2436 8.69065 31.4655 7.30784 35.328 7.10784C35.8842 7.03753 36.3639 7.49534 36.4155 8.04065C36.717 11.0922 35.7467 14.1844 33.8155 16.3157C31.9467 18.3782 29.317 19.4703 26.2108 19.4703L26.2123 19.4688ZM26.0858 17.386C28.6905 17.3422 30.7858 16.5563 32.2795 14.911C33.6061 13.4485 34.3624 11.3938 34.392 9.2719C31.578 9.60159 29.2717 10.6844 27.8249 12.3547C26.6686 13.7047 26.0749 15.4282 26.0858 17.386ZM23.8795 13.2188C20.7733 13.2188 18.142 12.1266 16.2686 10.0578C14.3389 7.93128 13.3686 4.83753 13.6686 1.7844C13.7233 1.22972 14.2108 0.789091 14.7577 0.846904C18.6202 1.05159 21.8467 2.4344 23.8405 4.74534C25.553 6.73128 26.3092 9.31565 26.0264 12.2266C25.978 12.725 25.5811 13.125 25.078 13.1625C24.667 13.2016 24.267 13.2188 23.878 13.2188H23.8795ZM15.6999 3.01878C15.7295 5.14534 16.4858 7.20003 17.8123 8.65784C19.2811 10.2766 21.3764 11.1328 23.8795 11.1328C23.9217 11.1328 23.9624 11.1328 24.0045 11.1328C24.017 9.17503 23.4249 7.4469 22.267 6.10628C20.8217 4.43128 18.5155 3.35472 15.6999 3.01878Z" fill="#CFCA4C"/>
</svg>
