<svg width="50" height="50" viewBox="0 0 50 50" fill="none" xmlns="http://www.w3.org/2000/svg">
<path d="M49.5859 25.232C48.6914 23.9986 46.53 22.2596 42.0963 24.4764L39.6127 25.7153C37.0236 23.8041 34.4511 22.7707 31.9398 22.6263V18.3982C32.712 18.6538 33.5121 18.7816 34.3122 18.7816C35.629 18.7816 36.9402 18.4427 38.1126 17.7649C40.2683 16.5204 41.6796 14.2925 41.8851 11.809C41.9074 11.5534 41.7685 11.3145 41.5351 11.209C39.2793 10.1478 36.6458 10.2533 34.49 11.4979C33.4454 12.1035 32.5731 12.9424 31.9342 13.9258V12.3924C33.8177 10.9589 34.94 8.73104 34.94 6.35313C34.94 3.8641 33.7177 1.53064 31.6731 0.108339C31.4619 -0.0361131 31.1841 -0.0361131 30.9785 0.108339C28.9339 1.53064 27.7116 3.8641 27.7116 6.35313C27.7116 8.73104 28.8339 10.9589 30.7174 12.3924V13.9258C30.0729 12.9424 29.2062 12.1035 28.1616 11.4979C26.0058 10.2533 23.3723 10.1422 21.1165 11.209C20.8887 11.3201 20.7498 11.559 20.7665 11.809C20.972 14.2925 22.3833 16.5204 24.539 17.7649C25.7114 18.4427 27.0226 18.7816 28.3394 18.7816C29.1395 18.7816 29.9396 18.6538 30.7119 18.3982V22.6207C26.8726 22.8429 23.5 25.1264 21.2554 27.1265H19.7775C16.1827 25.9487 11.0489 25.1375 7.55407 31.1934L4.73713 36.0714C4.26487 35.927 3.75926 35.9103 3.27033 36.0437C2.59248 36.2215 2.01465 36.6659 1.65906 37.2826L0.358935 39.5383C-0.380025 40.8162 0.0589059 42.4551 1.33681 43.1885L12.5157 49.6444C12.9379 49.8889 13.3935 50 13.8491 50C14.7714 50 15.6771 49.5222 16.1716 48.661L17.4717 46.4054C17.8273 45.7887 17.9217 45.0664 17.7384 44.3775C17.605 43.8885 17.3383 43.4552 16.9772 43.1218L17.6328 41.9829C18.544 40.405 20.1108 39.4994 21.9388 39.4994H25.5169C28.3505 39.4994 30.8063 38.8383 33.2621 37.4271L48.9136 28.3877C49.447 28.0766 49.8248 27.5599 49.9526 26.9598C50.0804 26.3598 49.947 25.732 49.5859 25.232ZM35.1067 12.5535C36.7902 11.5812 38.8237 11.4367 40.6239 12.1368C40.335 14.048 39.1904 15.7314 37.507 16.7037C36.0679 17.5371 34.3733 17.7593 32.7843 17.3649L36.6124 15.1536C36.9069 14.9869 37.0013 14.6147 36.8347 14.3202C36.668 14.0313 36.2957 13.9313 36.0013 14.098L32.1731 16.3092C32.6287 14.7425 33.6677 13.3869 35.1067 12.5535ZM28.9339 6.35313C28.9339 4.40858 29.8229 2.57514 31.3341 1.36952C32.8454 2.57514 33.7344 4.40858 33.7344 6.35313C33.7344 8.01433 33.0787 9.59776 31.9453 10.7756V6.35313C31.9453 6.01422 31.6731 5.74199 31.3341 5.74199C30.9952 5.74199 30.723 6.01422 30.723 6.35313V10.7756C29.5895 9.59776 28.9339 8.01433 28.9339 6.35313ZM25.1558 16.7093C23.4723 15.737 22.3277 14.0536 22.0388 12.1423C23.839 11.4367 25.8725 11.5868 27.556 12.559C28.995 13.3924 30.0396 14.748 30.4896 16.3204L26.6615 14.1091C26.367 13.9424 25.9947 14.0424 25.8281 14.3314C25.6614 14.6203 25.7614 14.9981 26.0503 15.1647L29.8784 17.376C28.295 17.7649 26.6003 17.5426 25.1558 16.7093ZM31.3341 23.8152C33.6066 23.8152 35.979 24.6653 38.3848 26.332L31.8453 29.6044C31.4397 28.1766 30.1285 27.1265 28.5728 27.1265H23.1667C25.3113 25.4375 28.1894 23.8152 31.3341 23.8152ZM16.4105 45.7998L15.1104 48.0554C14.9159 48.3888 14.6047 48.6333 14.2269 48.7333C13.8491 48.8333 13.4602 48.7833 13.1213 48.5888L1.94242 42.1329C1.24791 41.7329 1.009 40.8384 1.40904 40.1439L2.70916 37.8882C2.97585 37.4215 3.47034 37.1604 3.97039 37.1604C4.21486 37.1604 4.46489 37.2215 4.69268 37.3549L4.69824 37.3604L15.866 43.8108L15.8715 43.8163C16.5772 44.2163 16.8161 45.1053 16.4105 45.7998ZM48.7636 26.7043C48.708 26.9709 48.5469 27.1932 48.3024 27.3321L32.6454 36.3715C30.384 37.6771 28.1172 38.2827 25.5114 38.2827H21.9332C19.6608 38.2827 17.7106 39.4105 16.5716 41.3773L15.9493 42.4496L5.8428 36.6104L8.62084 31.799C11.6656 26.5209 16.0327 27.1654 19.4997 28.3099C19.5608 28.3321 19.6275 28.3432 19.6941 28.3432H28.5728C29.7729 28.3432 30.7452 29.3155 30.7507 30.51C30.7507 30.5156 30.7507 30.5267 30.7507 30.5322C30.7452 31.1045 30.5229 31.649 30.1118 32.0601C29.7006 32.4712 29.1506 32.699 28.5728 32.699H21.8832C21.5443 32.699 21.2721 32.9713 21.2721 33.3102C21.2721 33.6491 21.5443 33.9213 21.8832 33.9213H28.5672C29.4728 33.9213 30.3229 33.5658 30.9674 32.9213C31.5175 32.3712 31.8564 31.6656 31.9453 30.91L42.6408 25.5653C45.4077 24.1819 47.4135 24.3097 48.5969 25.9487C48.7636 26.1709 48.8191 26.4376 48.7636 26.7043Z" fill="#CFCA4C"/>
</svg>
